<svg width="307" height="48" viewBox="0 0 307 48" fill="none" xmlns="http://www.w3.org/2000/svg">
<path d="M9.99986 26C9.99986 29.2968 11.3293 32.283 13.4813 34.4519C13.6889 34.6611 13.7927 34.7657 13.8539 34.8663C13.9124 34.9622 13.9464 35.0448 13.9725 35.1541C13.9999 35.2687 13.9999 35.399 13.9999 35.6597V40.4C13.9999 40.9601 13.9999 41.2401 14.1089 41.454C14.2047 41.6422 14.3577 41.7951 14.5459 41.891C14.7598 42 15.0398 42 15.5999 42H19.3999C19.9599 42 20.2399 42 20.4539 41.891C20.642 41.7951 20.795 41.6422 20.8909 41.454C20.9999 41.2401 20.9999 40.9601 20.9999 40.4V39.6C20.9999 39.0399 20.9999 38.7599 21.1089 38.546C21.2047 38.3578 21.3577 38.2049 21.5459 38.109C21.7598 38 22.0398 38 22.5999 38H25.3999C25.9599 38 26.2399 38 26.4539 38.109C26.642 38.2049 26.795 38.3578 26.8909 38.546C26.9999 38.7599 26.9999 39.0399 26.9999 39.6V40.4C26.9999 40.9601 26.9999 41.2401 27.1089 41.454C27.2047 41.6422 27.3577 41.7951 27.5459 41.891C27.7598 42 28.0398 42 28.5999 42H32.4C32.9601 42 33.2401 42 33.454 41.891C33.6422 41.7951 33.7951 41.6422 33.891 41.454C34 41.2401 34 40.9601 34 40.4V38.4487C34 38.0445 34 37.8425 34.0575 37.6803C34.1127 37.5248 34.1821 37.416 34.2999 37.3005C34.4228 37.18 34.631 37.0834 35.0474 36.89C37.0118 35.978 38.6881 34.5501 39.9022 32.7803C40.1157 32.4691 40.2225 32.3135 40.3365 32.2216C40.4455 32.1337 40.5433 32.0822 40.6775 32.042C40.8178 32 40.9844 32 41.3175 32H42.4C42.9601 32 43.2401 32 43.454 31.891C43.6422 31.7951 43.7951 31.6422 43.891 31.454C44 31.2401 44 30.9601 44 30.4V23.5715C44 23.0383 44 22.7717 43.9009 22.5661C43.8027 22.362 43.638 22.1973 43.4339 22.0991C43.2283 22 42.9617 22 42.4285 22C42.0426 22 41.8496 22 41.6942 21.9476C41.5266 21.8911 41.4091 21.816 41.2875 21.6875C41.1747 21.5684 41.0826 21.3693 40.8985 20.9709C40.3076 19.6924 39.4983 18.5355 38.5185 17.5481C38.311 17.3389 38.2072 17.2343 38.1459 17.1337C38.0875 17.0378 38.0535 16.9552 38.0274 16.8459C38 16.7313 38 16.601 38 16.3404V14.1212C38 13.4011 38 13.041 37.85 12.799C37.7187 12.587 37.5129 12.4318 37.2729 12.3637C36.999 12.286 36.6528 12.3849 35.9605 12.5827L31.2153 13.9384C31.1347 13.9615 31.0944 13.973 31.0534 13.9811C31.017 13.9883 30.9802 13.9934 30.9432 13.9965C30.9016 14 30.8596 14 30.7758 14H29.9181M9.99986 26C9.99986 21.3919 12.5973 17.3904 16.4079 15.3798M9.99986 26H8C5.79086 26 4 24.2091 4 22C4 20.5194 4.8044 19.2267 6 18.5351M30 13C30 16.866 26.866 20 23 20C19.134 20 16 16.866 16 13C16 9.13401 19.134 6 23 6C26.866 6 30 9.13401 30 13Z" stroke="#2D2D2D" stroke-width="3.75" stroke-linecap="round" stroke-linejoin="round"/>
<path d="M72.8807 44.5V31.4331L73.7798 32.547C72.9806 33.8037 71.8675 34.7748 70.4404 35.4603C69.0132 36.1172 67.4577 36.4457 65.7737 36.4457C63.5189 36.4457 61.5066 35.9173 59.737 34.8605C57.9674 33.7752 56.5688 32.3042 55.5413 30.4478C54.5138 28.5913 54 26.5348 54 24.2785C54 21.9936 54.5138 19.9371 55.5413 18.1092C56.5688 16.2813 57.9674 14.8246 59.737 13.7393C61.5352 12.654 63.5331 12.1113 65.7309 12.1113C67.5005 12.1113 69.0703 12.4683 70.4404 13.1823C71.8389 13.8678 72.9378 14.8389 73.737 16.0956L73.1804 17.2524V12.6254H78.4893V44.5H72.8807ZM66.3731 31.3046C67.6575 31.3046 68.7849 31.0047 69.7553 30.4049C70.7258 29.8051 71.4822 28.9768 72.0245 27.9201C72.5953 26.8633 72.8807 25.6494 72.8807 24.2785C72.8807 22.9361 72.5953 21.7365 72.0245 20.6797C71.4822 19.5944 70.7258 18.7518 69.7553 18.152C68.7849 17.5522 67.6575 17.2524 66.3731 17.2524C65.1172 17.2524 63.9898 17.5665 62.9908 18.1949C61.9918 18.7947 61.2069 19.623 60.6361 20.6797C60.0938 21.7079 59.8226 22.9075 59.8226 24.2785C59.8226 25.6494 60.0938 26.8633 60.6361 27.9201C61.2069 28.9768 61.9918 29.8051 62.9908 30.4049C63.9898 31.0047 65.1172 31.3046 66.3731 31.3046Z" fill="#2D2D2D"/>
<path d="M91.1567 36.4457C89.3585 36.4457 87.7887 36.0458 86.4472 35.2461C85.1343 34.4464 84.121 33.3325 83.4075 31.9044C82.7225 30.4763 82.38 28.8055 82.38 26.8918V12.6254H87.9885V26.4206C87.9885 27.3917 88.174 28.2485 88.5451 28.9911C88.9447 29.7052 89.5013 30.2764 90.2148 30.7048C90.9569 31.1047 91.7846 31.3046 92.698 31.3046C93.6114 31.3046 94.4248 31.1047 95.1384 30.7048C95.8519 30.2764 96.4085 29.6909 96.8081 28.9483C97.2077 28.2057 97.4075 27.3203 97.4075 26.2921V12.6254H103.016V35.9316H97.7072V31.3474L98.1781 32.1614C97.6358 33.5895 96.7367 34.6606 95.4809 35.3746C94.2536 36.0886 92.8122 36.4457 91.1567 36.4457Z" fill="#2D2D2D"/>
<path d="M114.438 36.4457C112.811 36.4457 111.398 36.1743 110.199 35.6317C109 35.089 108.073 34.3178 107.416 33.3182C106.76 32.29 106.431 31.1047 106.431 29.7623C106.431 28.477 106.717 27.3346 107.288 26.3349C107.859 25.3067 108.743 24.4498 109.942 23.7644C111.141 23.0789 112.654 22.5933 114.48 22.3077L122.101 21.0653V25.3495L115.551 26.4634C114.438 26.6634 113.61 27.0204 113.067 27.5345C112.525 28.0486 112.254 28.7198 112.254 29.5481C112.254 30.3478 112.554 30.9904 113.153 31.476C113.781 31.9329 114.552 32.1614 115.465 32.1614C116.635 32.1614 117.663 31.9187 118.548 31.4331C119.461 30.919 120.16 30.2193 120.645 29.3339C121.159 28.4484 121.416 27.4774 121.416 26.4206V20.4227C121.416 19.423 121.017 18.5947 120.217 17.9378C119.447 17.2523 118.419 16.9096 117.135 16.9096C115.936 16.9096 114.866 17.2381 113.924 17.895C113.01 18.5233 112.34 19.3659 111.912 20.4227L107.33 18.1949C107.787 16.9667 108.501 15.91 109.471 15.0246C110.47 14.1106 111.64 13.3966 112.982 12.8824C114.323 12.3683 115.779 12.1113 117.349 12.1113C119.261 12.1113 120.945 12.4683 122.401 13.1823C123.856 13.8678 124.984 14.8389 125.783 16.0956C126.611 17.3238 127.025 18.7661 127.025 20.4227V35.9316H121.716V31.9472L122.915 31.8615C122.315 32.8612 121.602 33.7038 120.774 34.3892C119.946 35.0461 119.004 35.5603 117.948 35.9316C116.892 36.2743 115.722 36.4457 114.438 36.4457Z" fill="#2D2D2D"/>
<path d="M131.352 35.9316V12.6254H136.618V17.2095L136.19 16.3955C136.732 14.996 137.617 13.9392 138.845 13.2252C140.1 12.4826 141.556 12.1113 143.211 12.1113C144.924 12.1113 146.437 12.4826 147.75 13.2252C149.091 13.9678 150.133 15.0103 150.875 16.3527C151.617 17.6665 151.988 19.1945 151.988 20.9368V35.9316H146.38V22.2649C146.38 21.2367 146.18 20.3513 145.78 19.6087C145.381 18.8661 144.824 18.2948 144.111 17.895C143.426 17.4666 142.612 17.2524 141.67 17.2524C140.757 17.2524 139.943 17.4666 139.23 17.895C138.516 18.2948 137.96 18.8661 137.56 19.6087C137.161 20.3513 136.961 21.2367 136.961 22.2649V35.9316H131.352Z" fill="#2D2D2D"/>
<path d="M166.492 36.1886C163.866 36.1886 161.826 35.4746 160.37 34.0465C158.943 32.5899 158.229 30.5477 158.229 27.9201V17.6379H154.205V12.6254H154.633C155.775 12.6254 156.659 12.3255 157.287 11.7257C157.915 11.1259 158.229 10.2548 158.229 9.11233V7.31296H163.838V12.6254H169.19V17.6379H163.838V27.6202C163.838 28.3913 163.966 29.0482 164.223 29.5909C164.509 30.1336 164.937 30.5477 165.508 30.8333C166.107 31.1189 166.863 31.2618 167.777 31.2618C167.977 31.2618 168.205 31.2475 168.462 31.2189C168.747 31.1904 169.018 31.1618 169.275 31.1332V35.9316C168.876 35.9887 168.419 36.0458 167.905 36.1029C167.391 36.16 166.92 36.1886 166.492 36.1886Z" fill="#2D2D2D"/>
<path d="M183.883 36.4457C181.6 36.4457 179.516 35.9173 177.633 34.8605C175.777 33.8037 174.293 32.3614 173.18 30.5334C172.095 28.7055 171.553 26.6205 171.553 24.2785C171.553 21.9364 172.095 19.8514 173.18 18.0235C174.293 16.1956 175.777 14.7532 177.633 13.6964C179.488 12.6397 181.571 12.1113 183.883 12.1113C186.167 12.1113 188.236 12.6397 190.091 13.6964C191.946 14.7532 193.416 16.1956 194.501 18.0235C195.614 19.8229 196.171 21.9079 196.171 24.2785C196.171 26.6205 195.614 28.7055 194.501 30.5334C193.388 32.3614 191.904 33.8037 190.048 34.8605C188.193 35.9173 186.138 36.4457 183.883 36.4457ZM183.883 31.3046C185.139 31.3046 186.238 31.0047 187.18 30.4049C188.15 29.8051 188.907 28.9768 189.449 27.9201C190.02 26.8347 190.305 25.6209 190.305 24.2785C190.305 22.9075 190.02 21.7079 189.449 20.6797C188.907 19.623 188.15 18.7947 187.18 18.1949C186.238 17.5665 185.139 17.2524 183.883 17.2524C182.599 17.2524 181.471 17.5665 180.501 18.1949C179.531 18.7947 178.76 19.623 178.189 20.6797C177.647 21.7079 177.376 22.9075 177.376 24.2785C177.376 25.6209 177.647 26.8347 178.189 27.9201C178.76 28.9768 179.531 29.8051 180.501 30.4049C181.471 31.0047 182.599 31.3046 183.883 31.3046Z" fill="#2D2D2D"/>
<path d="M208.43 36.4457C205.947 36.4457 203.778 35.8602 201.922 34.6891C200.096 33.4895 198.84 31.8758 198.155 29.848L202.351 27.8344C202.95 29.1482 203.778 30.1764 204.834 30.919C205.918 31.6616 207.117 32.0329 208.43 32.0329C209.458 32.0329 210.271 31.8044 210.87 31.3474C211.47 30.8905 211.77 30.2907 211.77 29.5481C211.77 29.0911 211.641 28.7198 211.384 28.4342C211.156 28.12 210.828 27.8629 210.4 27.663C210 27.4345 209.558 27.2489 209.072 27.1061L205.262 26.035C203.292 25.4638 201.794 24.5926 200.766 23.4216C199.768 22.2506 199.268 20.8654 199.268 19.2659C199.268 17.8379 199.625 16.5954 200.338 15.5387C201.08 14.4533 202.094 13.6108 203.378 13.011C204.691 12.4112 206.19 12.1113 207.874 12.1113C210.071 12.1113 212.012 12.6397 213.696 13.6964C215.38 14.7532 216.579 16.2384 217.292 18.152L213.011 20.1656C212.612 19.1088 211.941 18.2663 210.999 17.6379C210.057 17.0096 209.001 16.6954 207.831 16.6954C206.889 16.6954 206.147 16.9096 205.604 17.338C205.062 17.7665 204.791 18.3234 204.791 19.0089C204.791 19.4373 204.905 19.8086 205.133 20.1228C205.362 20.437 205.676 20.694 206.075 20.8939C206.503 21.0939 206.989 21.2795 207.531 21.4509L211.256 22.5648C213.168 23.136 214.638 23.9929 215.666 25.1353C216.722 26.2778 217.25 27.6773 217.25 29.3339C217.25 30.7334 216.879 31.9758 216.136 33.0611C215.394 34.1179 214.367 34.9462 213.054 35.546C211.741 36.1458 210.2 36.4457 208.43 36.4457Z" fill="#2D2D2D"/>
<path d="M238.288 36.4457C236.034 36.4457 234.021 35.9173 232.252 34.8605C230.482 33.7752 229.084 32.3042 228.056 30.4478C227.029 28.5913 226.515 26.5348 226.515 24.2785C226.515 21.9936 227.029 19.9371 228.056 18.1092C229.084 16.2813 230.482 14.8246 232.252 13.7393C234.05 12.654 236.048 12.1113 238.246 12.1113C240.015 12.1113 241.585 12.4683 242.955 13.1823C244.354 13.8678 245.453 14.8389 246.252 16.0956L245.395 17.2524V3.5H251.004V35.9316H245.695V31.4331L246.295 32.547C245.495 33.8037 244.382 34.7748 242.955 35.4603C241.528 36.1172 239.972 36.4457 238.288 36.4457ZM238.888 31.3046C240.172 31.3046 241.3 31.0047 242.27 30.4049C243.241 29.8051 243.997 28.9768 244.539 27.9201C245.11 26.8633 245.395 25.6494 245.395 24.2785C245.395 22.9361 245.11 21.7365 244.539 20.6797C243.997 19.5944 243.241 18.7518 242.27 18.152C241.3 17.5522 240.172 17.2524 238.888 17.2524C237.632 17.2524 236.505 17.5665 235.506 18.1949C234.507 18.7947 233.722 19.623 233.151 20.6797C232.609 21.7079 232.337 22.9075 232.337 24.2785C232.337 25.6494 232.609 26.8633 233.151 27.9201C233.722 28.9768 234.507 29.8051 235.506 30.4049C236.505 31.0047 237.632 31.3046 238.888 31.3046Z" fill="#2D2D2D"/>
<path d="M255.366 35.9316V12.6254H260.974V35.9316H255.366ZM255.366 10.012V4.01411H260.974V10.012H255.366Z" fill="#2D2D2D"/>
<path d="M272.361 36.4457C270.734 36.4457 269.321 36.1743 268.122 35.6317C266.923 35.089 265.996 34.3178 265.339 33.3182C264.683 32.29 264.354 31.1047 264.354 29.7623C264.354 28.477 264.64 27.3346 265.211 26.3349C265.782 25.3067 266.666 24.4498 267.865 23.7644C269.064 23.0789 270.577 22.5933 272.403 22.3077L280.024 21.0653V25.3495L273.474 26.4634C272.361 26.6634 271.533 27.0204 270.991 27.5345C270.448 28.0486 270.177 28.7198 270.177 29.5481C270.177 30.3478 270.477 30.9904 271.076 31.476C271.704 31.9329 272.475 32.1614 273.388 32.1614C274.558 32.1614 275.586 31.9187 276.471 31.4331C277.384 30.919 278.083 30.2193 278.569 29.3339C279.082 28.4484 279.339 27.4774 279.339 26.4206V20.4227C279.339 19.423 278.94 18.5947 278.14 17.9378C277.37 17.2523 276.342 16.9096 275.058 16.9096C273.859 16.9096 272.789 17.2381 271.847 17.895C270.933 18.5233 270.263 19.3659 269.835 20.4227L265.254 18.1949C265.71 16.9667 266.424 15.91 267.394 15.0246C268.393 14.1106 269.563 13.3966 270.905 12.8824C272.246 12.3683 273.702 12.1113 275.272 12.1113C277.184 12.1113 278.868 12.4683 280.324 13.1823C281.78 13.8678 282.907 14.8389 283.706 16.0956C284.534 17.3238 284.948 18.7661 284.948 20.4227V35.9316H279.639V31.9472L280.838 31.8615C280.238 32.8612 279.525 33.7038 278.697 34.3892C277.869 35.0461 276.927 35.5603 275.871 35.9316C274.815 36.2743 273.645 36.4457 272.361 36.4457Z" fill="#2D2D2D"/>
<path d="M298.138 36.4457C295.654 36.4457 293.485 35.8602 291.63 34.6891C289.803 33.4895 288.547 31.8758 287.862 29.848L292.058 27.8344C292.658 29.1482 293.485 30.1764 294.541 30.919C295.626 31.6616 296.825 32.0329 298.138 32.0329C299.165 32.0329 299.979 31.8044 300.578 31.3474C301.177 30.8905 301.477 30.2907 301.477 29.5481C301.477 29.0911 301.349 28.7198 301.092 28.4342C300.863 28.12 300.535 27.8629 300.107 27.663C299.707 27.4345 299.265 27.2489 298.78 27.1061L294.969 26.035C293 25.4638 291.502 24.5926 290.474 23.4216C289.475 22.2506 288.976 20.8654 288.976 19.2659C288.976 17.8379 289.332 16.5954 290.046 15.5387C290.788 14.4533 291.801 13.6108 293.086 13.011C294.399 12.4112 295.897 12.1113 297.581 12.1113C299.779 12.1113 301.72 12.6397 303.404 13.6964C305.088 14.7532 306.286 16.2384 307 18.152L302.719 20.1656C302.319 19.1088 301.648 18.2663 300.706 17.6379C299.765 17.0096 298.708 16.6954 297.538 16.6954C296.596 16.6954 295.854 16.9096 295.312 17.338C294.77 17.7665 294.498 18.3234 294.498 19.0089C294.498 19.4373 294.613 19.8086 294.841 20.1228C295.069 20.437 295.383 20.694 295.783 20.8939C296.211 21.0939 296.696 21.2795 297.239 21.4509L300.963 22.5648C302.876 23.136 304.346 23.9929 305.373 25.1353C306.429 26.2778 306.957 27.6773 306.957 29.3339C306.957 30.7334 306.586 31.9758 305.844 33.0611C305.102 34.1179 304.074 34.9462 302.761 35.546C301.449 36.1458 299.907 36.4457 298.138 36.4457Z" fill="#2D2D2D"/>
<path d="M296.089 9.15517C296.089 7.97212 297.048 7.01306 298.23 7.01306C299.412 7.01306 300.371 7.97212 300.371 9.15517V38.0737C300.371 39.2567 299.412 40.2158 298.23 40.2158C297.048 40.2158 296.089 39.2567 296.089 38.0737V9.15517Z" fill="#2D2D2D"/>
</svg>
